<svg xmlns="http://www.w3.org/2000/svg" xmlns:xlink="http://www.w3.org/1999/xlink" fill="none" version="1.1" width="48" height="48" viewBox="0 0 48 48"><g style="mix-blend-mode:passthrough"><g><ellipse cx="24" cy="24" rx="24" ry="24" fill="#EFEFEF" fill-opacity="1"/></g><g style="mix-blend-mode:passthrough"><g><path d="M30.104030517578124,34.803048852539064C31.052330517578124,34.803048852539064,31.821130517578126,34.034248852539065,31.821130517578126,33.086048852539065C31.821130517578126,33.086048852539065,31.821130517578126,29.984948852539063,31.821130517578126,29.984948852539063C31.821130517578126,29.984948852539063,22.646430517578125,34.803048852539064,22.646430517578125,34.803048852539064C22.646430517578125,34.803048852539064,30.104130517578124,34.803048852539064,30.104130517578124,34.803048852539064C30.104130517578124,34.803048852539064,30.104030517578124,34.803048852539064,30.104030517578124,34.803048852539064ZM31.821130517578126,16.698988852539063C31.821130517578126,15.750686852539063,31.052430517578124,14.981948852539062,30.104130517578124,14.981948852539062C30.104130517578124,14.981948852539062,28.517530517578123,14.981948852539062,28.517530517578123,14.981948852539062C28.517530517578123,14.981948852539062,28.517530517578123,16.744308852539064,28.517530517578123,16.744308852539064C28.517530517578123,16.987258852539064,28.320530517578124,17.184248852539064,28.077630517578125,17.184248852539064C28.077630517578125,17.184248852539064,27.415830517578126,17.184248852539064,27.415830517578126,17.184248852539064C27.172830517578127,17.184248852539064,26.975830517578125,16.987258852539064,26.975830517578125,16.74427885253906C26.975830517578125,16.74427885253906,26.975830517578125,14.982101440539063,26.975830517578125,14.982101440539063C26.975830517578125,14.982101440539063,16.845180517578125,14.982101440539063,16.845180517578125,14.982101440539063C16.845180517578125,14.982101440539063,16.845180517578125,16.744428852539063,16.845180517578125,16.744428852539063C16.845180517578125,16.987408852539062,16.648210517578125,17.184368852539063,16.405230517578126,17.184368852539063C16.405230517578126,17.184368852539063,15.743430517578124,17.184368852539063,15.743430517578124,17.184368852539063C15.500460517578125,17.184368852539063,15.303490517578124,16.987408852539062,15.303490517578124,16.744428852539063C15.303490517578124,16.744428852539063,15.303490517578124,14.982101440539063,15.303490517578124,14.982101440539063C15.303490517578124,14.982101440539063,13.717090517578125,14.982101440539063,13.717090517578125,14.982101440539063C12.768791517578125,14.982101440539063,12.000038146968125,15.750838852539063,12.000038146968125,16.69913885253906C12.000038146968125,16.69913885253906,12.000038146968125,18.946428852539064,12.000038146968125,18.946428852539064C12.000038146968125,18.946428852539064,31.821130517578126,18.946428852539064,31.821130517578126,18.946428852539064C31.821130517578126,18.946428852539064,31.821130517578126,16.698988852539063,31.821130517578126,16.698988852539063C31.821130517578126,16.698988852539063,31.821130517578126,16.698988852539063,31.821130517578126,16.698988852539063ZM14.346040517578125,32.36164885253906C14.371230517578125,32.15784885253906,14.460460517578126,31.96734885253906,14.600890517578126,31.817448852539062C14.877030517578124,31.52514885253906,15.359730517578125,31.379548852539063,15.829530517578124,31.529148852539063C16.640290517578123,31.786548852539063,17.927580517578125,32.07134885253906,18.912480517578125,32.485848852539064C18.981030517578127,32.50924885253906,19.055590517578125,32.508148852539065,19.123370517578124,32.48274885253906C19.123370517578124,32.48274885253906,21.492470517578127,31.39414885253906,21.492470517578127,31.39414885253906C21.609770517578127,31.31194885253906,21.790820517578126,31.066648852539064,21.484980517578123,30.902748852539062C21.484980517578123,30.902748852539062,16.971930517578123,28.865148852539065,16.971930517578123,28.865148852539065C16.719330517578125,28.774348852539063,16.461790517578123,28.42284885253906,16.881480517578126,28.13364885253906C17.148190517578126,27.934848852539062,17.412480517578125,27.72544885253906,17.685640517578125,27.53414885253906C17.927580517578125,27.352248852539063,18.268980517578125,27.067548852539062,18.701580517578126,27.126248852539064C21.520820517578123,27.398748852539065,24.339330517578126,27.693948852539062,27.158730517578125,27.976248852539065C27.203830517578126,27.978548852539063,27.249030517578127,27.969648852539063,27.289830517578125,27.950348852539065C28.802130517578124,27.285548852539062,30.294630517578124,26.576748852539062,31.765630517578124,25.824948852539062C31.783930517578124,25.81624885253906,31.802730517578127,25.80874885253906,31.821030517578127,25.800348852539063C31.821030517578127,25.800348852539063,31.821030517578127,19.386698852539062,31.821030517578127,19.386698852539062C31.821030517578127,19.386698852539062,12.000030517578125,19.386698852539062,12.000030517578125,19.386698852539062C12.000030517578125,19.386698852539062,12.000030517578125,33.086048852539065,12.000030517578125,33.086048852539065C12.000030517578125,34.03434885253906,12.768783517578125,34.803048852539064,13.717080517578125,34.803048852539064C13.717080517578125,34.803048852539064,16.841890517578125,34.803048852539064,16.841890517578125,34.803048852539064C16.841890517578125,34.803048852539064,14.565040517578126,32.89864885253906,14.565040517578126,32.89864885253906C14.412330517578125,32.76354885253906,14.331350517578125,32.56494885253906,14.346050517578124,32.36164885253906C14.346050517578124,32.36164885253906,14.346040517578125,32.36164885253906,14.346040517578125,32.36164885253906Z" fill="#D34D5B" fill-opacity="1"/></g><g><path d="M15.743553129577636,17.1844C15.743553129577636,17.1844,16.405353129577637,17.1844,16.405353129577637,17.1844C16.648343129577636,17.1844,16.845313129577637,16.98741,16.845313129577637,16.74445C16.845313129577637,16.74445,16.845313129577637,13.439957,16.845313129577637,13.439957C16.845313129577637,13.196976,16.648343129577636,13,16.405353129577637,13C16.405353129577637,13,15.743553129577636,13,15.743553129577636,13C15.500583129577636,13,15.303612129577637,13.196976,15.303612129577637,13.439957C15.303612129577637,13.439957,15.303612129577637,16.74445,15.303612129577637,16.74445C15.303612129577637,16.98741,15.500583129577636,17.1844,15.743553129577636,17.1844C15.743553129577636,17.1844,15.743553129577636,17.1844,15.743553129577636,17.1844ZM27.415953129577638,17.1844C27.415953129577638,17.1844,28.077753129577637,17.1844,28.077753129577637,17.1844C28.32075312957764,17.1844,28.517753129577635,16.98741,28.517753129577635,16.74445C28.517753129577635,16.74445,28.517753129577635,13.439957,28.517753129577635,13.439957C28.517753129577635,13.196976,28.32075312957764,13,28.077753129577637,13C28.077753129577637,13,27.415953129577638,13,27.415953129577638,13C27.172953129577635,13,26.976053129577636,13.196976,26.976053129577636,13.439957C26.976053129577636,13.439957,26.976053129577636,16.74445,26.976053129577636,16.74445C26.976053129577636,16.98741,27.172953129577635,17.1844,27.415953129577638,17.1844C27.415953129577638,17.1844,27.415953129577638,17.1844,27.415953129577638,17.1844ZM35.82775312957764,26.1602C35.46285312957764,25.7581,34.663053129577634,25.3624,33.64785312957764,25.3801C33.64785312957764,25.3801,33.64785312957764,25.378999999999998,33.64785312957764,25.378999999999998C33.01645312957764,25.3923,32.394653129577634,25.535800000000002,31.821253129577638,25.8005C31.802953129577638,25.8089,31.784253129577635,25.8164,31.765953129577635,25.8251C30.294953129577635,26.5768,28.80235312957764,27.2855,27.290153129577636,27.950499999999998C27.24925312957764,27.9698,27.204153129577637,27.9787,27.159053129577636,27.976399999999998C24.33962312957764,27.6941,21.521113129577635,27.3988,18.701883129577638,27.1264C18.269283129577637,27.067700000000002,17.927883129577637,27.3524,17.685933129577638,27.534399999999998C17.412633129577635,27.7255,17.148343129577636,27.935000000000002,16.881783129577638,28.1338C16.462073129577636,28.422800000000002,16.719783129577635,28.7746,16.972223129577635,28.865299999999998C16.972223129577635,28.865299999999998,21.485263129577636,30.9029,21.485263129577636,30.9029C21.79111312957764,31.0669,21.610073129577636,31.312,21.492773129577635,31.3943C21.492773129577635,31.3943,19.123663129577636,32.4829,19.123663129577636,32.4829C19.055873129577638,32.5084,18.981313129577636,32.5096,18.912753129577638,32.486000000000004C17.927883129577637,32.071600000000004,16.640433129577637,31.7866,15.829823129577637,31.5293C15.360023129577637,31.3799,14.877327129577637,31.5253,14.601173129577637,31.8176C14.460792129577637,31.9675,14.371574429577636,32.158,14.346336359577636,32.3618C14.331733729577637,32.565200000000004,14.412757829577636,32.7637,14.565483129577636,32.8988C14.565483129577636,32.8988,16.842323129577636,34.803200000000004,16.842323129577636,34.803200000000004C16.842323129577636,34.803200000000004,17.299083129577635,35.1853,17.299083129577635,35.1853C17.612873129577636,35.4448,18.014733129577635,35.408100000000005,18.324313129577636,35.3915C18.997813129577636,35.353,19.407463129577636,35.3261,20.065363129577637,35.2672C20.442053129577637,35.228899999999996,20.808743129577636,35.1231,21.14791312957764,34.954899999999995C26.089653129577634,32.439800000000005,35.32425312957764,27.4912,35.32425312957764,27.4912C36.03615312957764,27.0661,36.15265312957764,26.5054,35.82775312957764,26.1602C35.82775312957764,26.1602,35.82775312957764,26.1602,35.82775312957764,26.1602Z" fill="#0D3F70" fill-opacity="1"/></g></g></g></svg>